<svg fill="none" height="310" viewBox="0 0 310 310" width="310" xmlns="http://www.w3.org/2000/svg">
  <path d="M121.481 279.775c6.878 1.854 10.96 8.945 9.106 15.823-1.853 6.878-8.944 10.96-15.822 9.106-32.9379-8.848-62.065-28.352-82.7963-55.412-20.7312-27.061-31.9687-60.192-31.9687-94.292 0-41.075 16.3396-80.5354 45.4021-109.5979s68.5229-45.4021 109.5979-45.4021 80.535 16.3396 109.598 45.4021c29.062 29.0625 45.402 68.5229 45.402 109.5979 0 33.971-11.173 66.973-31.71 93.969-20.602 26.996-49.471 46.5-82.215 55.541-6.878 1.893-13.995-2.163-15.887-9.041-1.893-6.878 2.163-13.995 9.041-15.888 27.254-7.491 51.344-23.766 68.523-46.241 17.115-22.54 26.415-50.053 26.415-78.34 0-34.229-13.627-67.1021-37.846-91.3208-24.219-24.2188-57.092-37.8459-91.321-37.8459s-67.1021 13.6271-91.3208 37.8459c-24.2188 24.2187-37.8459 57.0918-37.8459 91.3208 0 28.417 9.3646 56.058 26.673 78.598 17.2437 22.539 41.527 38.814 68.9747 46.177z" fill="#ff5f6d"/>
  <path d="M238.828 168.916c-1.623 0-3.246.271-5.14.541l-23.264-46.257c8.927-7.304 10.28-20.829 2.976-29.7557s-20.829-10.2793-29.756-2.9756-10.279 20.8293-2.975 29.7563c.811 1.082 1.623 1.893 2.705 2.705l-23.264 46.257c-3.246-.812-6.492-.812-9.738 0l-22.994-45.987c8.927-7.304 10.28-20.829 2.976-29.7557s-20.829-10.2793-29.756-2.9756c-8.9266 7.3037-10.2792 20.8293-2.9754 29.7563.8115 1.082 1.8935 1.893 2.9754 2.975l-23.5341 46.257c-1.8935-.541-3.5166-.811-5.4101-.811-11.6319 0-21.3702 9.467-21.3702 21.099s9.4678 21.37 21.0997 21.37c11.6318 0 21.3701-9.467 21.3701-21.099 0-6.222-2.7051-12.173-7.5742-16.231l23.5338-46.527c1.623 .27 3.246 .541 5.14 .541 1.623 0 3.246-.271 4.869-.541l22.993 45.986c-8.926 7.304-10.279 20.829-2.975 29.756s20.829 10.279 29.756 2.976c8.926-7.304 10.279-20.829 2.975-29.756-.811-1.082-1.893-2.164-2.975-2.976l23.263-46.257c1.623 .541 3.517 .541 5.14 .541s3.246-.27 4.869-.541l23.264 45.987c-8.927 7.574-10.279 20.829-2.705 29.756 7.574 8.926 20.829 10.279 29.756 2.705 8.926-7.575 10.279-20.829 2.705-29.756-3.787-4.058-9.738-6.763-15.96-6.763z" fill="#ff5f6d"/>
</svg>
